<?xml version="1.0" encoding="utf-8"?>
<!-- Svg Vector Icons : http://www.onlinewebfonts.com/icon -->
<!DOCTYPE svg PUBLIC "-//W3C//DTD SVG 1.1//EN" "http://www.w3.org/Graphics/SVG/1.1/DTD/svg11.dtd">
<svg version="1.1" xmlns="http://www.w3.org/2000/svg" xmlns:xlink="http://www.w3.org/1999/xlink" x="0px" y="0px"
    viewBox="0 0 256 256" enable-background="new 0 0 256 256" xml:space="preserve">
    <metadata> Svg Vector Icons : http://www.onlinewebfonts.com/icon </metadata>
    <g>
        <g>
            <g>
                <path fill="#7e7e7e"
                    d="M30.3,48.2c-9.2,1.2-17.1,8.3-19.4,17.4c-1.1,4.1-1.1,120.7,0,124.8c2,7.8,7.6,13.7,15.5,16.6l3,1.1H128h98.6l3-1.1c7.9-2.9,13.5-8.8,15.5-16.6c1.1-4.1,1.1-120.7,0-124.8c-2-7.8-7.6-13.7-15.5-16.6l-3-1.1l-96.7,0C76.7,47.8,31.8,48,30.3,48.2z M225.3,62.2c1.4,0.4,2.9,1.3,3.9,2.2c3.2,3.3,3-1,3,63.6c0,64.6,0.2,60.3-3,63.6c-3,3.1,3.6,2.9-101.1,2.9s-98.1,0.2-101.1-2.9c-3.2-3.3-3,1-3-63.7c0-56,0-58.7,0.9-60.5c1.2-2.6,3.3-4.4,5.8-5.2C33.8,61.2,221.8,61.1,225.3,62.2z" />
                <path fill="#7e7e7e"
                    d="M42.2,74.3c-2.3,1-3.8,2.6-4.8,4.9c-0.6,1.5-0.7,5.4-0.7,28.5c0,25.1,0.1,26.9,0.9,28.7c1,2.2,3,4.2,4.9,4.9c2.2,0.9,55.5,0.7,57.5-0.1c1.9-0.8,4.5-3.6,4.9-5.4c0.2-0.7,0.4-13.5,0.4-28.4V80.3l-1.1-2c-0.6-1.1-1.9-2.6-3-3.3l-2-1.3l-27.6-0.1C45.7,73.4,44,73.4,42.2,74.3z M91.8,107.7l-0.1,20.6H71.2H50.8l-0.1-20.6l-0.1-20.5h20.7h20.7L91.8,107.7z" />
                <path fill="#7e7e7e" d="M120.9,87.1v6.7h45.6h45.6v-6.7v-6.7h-45.6h-45.6V87.1z" />
                <path fill="#7e7e7e" d="M120.9,114.5v6.9h45.6h45.6v-6.9v-6.9h-45.6h-45.6V114.5z" />
                <path fill="#7e7e7e" d="M120.9,141.6v6.9h45.6h45.6v-6.9v-6.9h-45.6h-45.6V141.6z" />
                <path fill="#7e7e7e"
                    d="M42.2,147.8c-2.1,1.1-3.6,2.6-4.6,4.7c-0.8,1.7-0.9,3.2-0.9,12.4c0,9.1,0.1,10.7,0.9,12.4c1,2.3,3.3,4.3,5.7,5c1.2,0.4,10.5,0.5,29,0.4l27.1-0.1l2-1.4c3.6-2.6,4-3.8,4.1-14.9c0.1-6.3,0-10.5-0.4-11.9c-0.7-2.8-2.4-5-4.8-6.2c-1.8-0.9-2.9-1-29.3-1C47.1,147,43.4,147.1,42.2,147.8z M91.9,164.9v4H71.2H50.5v-4v-4h20.7h20.7L91.9,164.9L91.9,164.9z" />
                <path fill="#7e7e7e" d="M120.9,168.9v6.7H147h26.1v-6.7v-6.7H147h-26.1V168.9z" />
            </g>
        </g>
    </g>
</svg>