<?xml version="1.0" encoding="iso-8859-1"?>
<!-- Uploaded to: SVG Repo, www.svgrepo.com, Generator: SVG Repo Mixer Tools -->
<svg fill="#000000" height="800px" width="800px" version="1.1" id="Layer_1" xmlns="http://www.w3.org/2000/svg" xmlns:xlink="http://www.w3.org/1999/xlink" 
	 viewBox="0 0 512 512" xml:space="preserve">
<g>
	<g>
		<path d="M418.352,336h-36.688c-34,0-61.664,27.664-61.664,61.68v52.656c0,34,27.664,61.664,61.648,61.664h36.688
			c34,0,61.664-27.664,61.664-61.68v-52.656C480,363.664,452.336,336,418.352,336z M448,450.336
			C448,466.688,434.688,480,418.352,480h-36.688C365.312,480,352,466.688,352,450.32v-52.656C352,381.312,365.312,368,381.664,368
			h36.672C434.688,368,448,381.312,448,397.68V450.336z"/>
	</g>
</g>
<g>
	<g>
		<path d="M400,336c-8.832,0-16,7.168-16,16v32c0,8.832,7.168,16,16,16c8.832,0,16-7.168,16-16v-32C416,343.168,408.832,336,400,336
			z"/>
	</g>
</g>
<g>
	<g>
		<path d="M375.312,0H72.688C50.256,0,32,18.256,32,40.704v190.592C32,253.744,50.256,272,72.688,272h302.624
			C397.744,272,416,253.744,416,231.296V40.704C416,18.256,397.744,0,375.312,0z M384,231.296c0,4.8-3.904,8.704-8.688,8.704H72.688
			c-4.784,0-8.688-3.904-8.688-8.704V40.704c0-4.8,3.904-8.704,8.688-8.704h302.624c4.784,0,8.688,3.904,8.688,8.704V231.296z"/>
	</g>
</g>
<g>
	<g>
		<path d="M160,240c-8.832,0-16,7.168-16,16v48c0,8.832,7.168,16,16,16c8.832,0,16-7.168,16-16v-48C176,247.168,168.832,240,160,240
			z"/>
	</g>
</g>
<g>
	<g>
		<path d="M288,240c-8.832,0-16,7.168-16,16v48c0,8.832,7.168,16,16,16c8.832,0,16-7.168,16-16v-48C304,247.168,296.832,240,288,240
			z"/>
	</g>
</g>
<g>
	<g>
		<path d="M320,288H128c-8.832,0-16,7.168-16,16c0,8.832,7.168,16,16,16h192c8.832,0,16-7.168,16-16
			C336,295.168,328.832,288,320,288z"/>
	</g>
</g>
<g>
	<g>
		<path d="M400,192H48c-8.832,0-16,7.168-16,16c0,8.832,7.168,16,16,16h352c8.832,0,16-7.168,16-16C416,199.168,408.832,192,400,192
			z"/>
	</g>
</g>
<g>
	<g>
		<path d="M224,224c-8.832,0-16,7.168-16,16v16c0,8.832,7.168,16,16,16c8.832,0,16-7.168,16-16v-16C240,231.168,232.832,224,224,224
			z"/>
	</g>
</g>
<g>
	<g>
		<path d="M264.864,336H55.12C42.368,336,32,346.384,32,359.152v129.712C32,501.616,42.368,512,55.12,512h209.76
			c12.752,0,23.12-10.384,23.12-23.152V359.136C288,346.384,277.632,336,264.864,336z M256,480H64V368h192V480z"/>
	</g>
</g>
<g>
	<g>
		<path d="M124,387.52c-5.92-5.92-16.8-5.92-22.72,0c-2.88,3.04-4.64,7.04-4.64,11.36c0,4.16,1.76,8.32,4.64,11.2
			c3.04,3.04,7.04,4.8,11.36,4.8c4.16,0,8.32-1.76,11.36-4.8c2.88-2.88,4.64-7.04,4.64-11.2C128.64,394.56,126.88,390.56,124,387.52
			z"/>
	</g>
</g>
<g>
	<g>
		<path d="M268.16,387.52c-6.08-5.92-16.8-5.92-22.72,0c-2.88,2.88-4.64,7.04-4.64,11.36c0,4.16,1.76,8.32,4.64,11.36
			c3.04,2.88,7.2,4.64,11.36,4.64c4.16,0,8.32-1.76,11.36-4.8c2.88-2.88,4.64-7.04,4.64-11.2
			C272.8,394.56,271.04,390.56,268.16,387.52z"/>
	</g>
</g>
<g>
	<g>
		<path d="M76.16,387.52c-6.08-5.92-16.8-5.92-22.72,0c-2.88,2.88-4.64,7.04-4.64,11.36c0,4.16,1.76,8.32,4.64,11.2
			c3.04,3.04,7.04,4.8,11.36,4.8c4.16,0,8.32-1.76,11.36-4.8c2.88-2.88,4.64-7.04,4.64-11.2C80.8,394.56,79.04,390.56,76.16,387.52z
			"/>
	</g>
</g>
<g>
	<g>
		<path d="M171.52,387.52c-5.92-5.92-16.96-5.92-22.72,0c-3.04,3.04-4.64,7.04-4.64,11.36c0,4.16,1.6,8.32,4.64,11.36
			c3.04,2.88,7.04,4.64,11.36,4.64c4.16,0,8.32-1.76,11.36-4.8c2.88-2.88,4.64-7.04,4.64-11.2
			C176.16,394.56,174.4,390.56,171.52,387.52z"/>
	</g>
</g>
<g>
	<g>
		<path d="M220.48,387.52c-5.92-5.92-16.64-5.92-22.72,0c-2.88,3.04-4.64,7.2-4.64,11.36c0,4.16,1.76,8.32,4.64,11.2
			c3.04,3.04,7.2,4.8,11.36,4.8c4.16,0,8.32-1.76,11.36-4.8c2.88-2.88,4.64-7.04,4.64-11.2S223.36,390.56,220.48,387.52z"/>
	</g>
</g>
<g>
	<g>
		<path d="M124,435.52c-5.92-5.92-16.8-5.92-22.72,0c-2.88,3.04-4.64,7.04-4.64,11.36c0,4.16,1.76,8.32,4.64,11.2
			c3.04,3.04,7.2,4.8,11.36,4.8c4.16,0,8.32-1.76,11.36-4.8c2.88-2.88,4.64-7.04,4.64-11.2C128.64,442.56,126.88,438.56,124,435.52z
			"/>
	</g>
</g>
<g>
	<g>
		<path d="M268.16,435.52c-5.92-5.92-16.8-5.92-22.72,0c-2.88,2.88-4.64,7.04-4.64,11.36c0,4.16,1.76,8.32,4.64,11.2
			c3.04,3.04,7.2,4.8,11.36,4.8c4.16,0,8.32-1.76,11.36-4.8c2.88-2.88,4.64-7.04,4.64-11.2S271.04,438.56,268.16,435.52z"/>
	</g>
</g>
<g>
	<g>
		<path d="M76.16,435.52c-5.92-5.92-16.8-5.92-22.72,0c-2.88,2.88-4.64,7.04-4.64,11.36c0,4.16,1.76,8.32,4.64,11.2
			c3.04,3.04,7.2,4.8,11.36,4.8c4.16,0,8.32-1.76,11.36-4.8c2.88-2.88,4.64-7.04,4.64-11.2C80.8,442.56,79.04,438.56,76.16,435.52z"
			/>
	</g>
</g>
<g>
	<g>
		<path d="M171.36,435.52c-5.92-5.92-16.64-5.92-22.56,0c-3.04,2.88-4.64,7.04-4.64,11.36c0,4.16,1.6,8.32,4.64,11.2
			c3.04,3.04,7.2,4.8,11.36,4.8c4.16,0,8.32-1.76,11.36-4.8c2.88-2.88,4.64-7.04,4.64-11.2
			C176.16,442.56,174.4,438.56,171.36,435.52z"/>
	</g>
</g>
<g>
	<g>
		<path d="M220.48,435.52c-5.92-5.92-16.64-6.08-22.72,0c-2.88,3.04-4.64,7.2-4.64,11.36c0,4.16,1.76,8.32,4.64,11.2
			c3.04,3.04,7.2,4.8,11.36,4.8c4.16,0,8.32-1.76,11.36-4.8c2.88-2.88,4.64-7.04,4.64-11.2S223.36,438.56,220.48,435.52z"/>
	</g>
</g>
<g>
	<g>
		<path d="M208,432h-96c-8.832,0-16,7.168-16,16c0,8.832,7.168,16,16,16h96c8.832,0,16-7.168,16-16C224,439.168,216.832,432,208,432
			z"/>
	</g>
</g>
</svg>